<?xml version="1.0" standalone="no"?>
<!DOCTYPE svg PUBLIC "-//W3C//DTD SVG 20010904//EN"
 "http://www.w3.org/TR/2001/REC-SVG-20010904/DTD/svg10.dtd">
<svg version="1.0" xmlns="http://www.w3.org/2000/svg"
 width="1404.000000pt" height="942.000000pt" viewBox="0 0 1404.000000 942.000000"
 preserveAspectRatio="xMidYMid meet">
  <a href="https://google.com" target="_blank">
        <circle cx="100" cy="100" r="80" fill="orange" />
    </a>

<g transform="translate(0.000000,942.000000) scale(0.100000,-0.100000)"
fill="#000000" stroke="none">
<path d="M0 4710 l0 -4710 7020 0 7020 0 0 4710 0 4710 -7020 0 -7020 0 0
-4710z m7104 2768 c59 -40 96 -90 96 -129 0 -20 7 -42 15 -49 8 -7 15 -18 15
-24 0 -6 23 -33 50 -59 37 -36 50 -56 50 -78 0 -36 32 -97 73 -141 55 -57 59
-66 67 -138 8 -77 20 -97 82 -136 42 -27 56 -58 37 -81 -11 -13 -10 -18 10
-34 19 -15 40 -19 112 -19 100 0 104 -3 115 -82 8 -56 -9 -71 -85 -78 -55 -5
-56 -6 -59 -37 -2 -19 1 -33 7 -33 6 0 20 -9 30 -19 32 -32 57 -41 110 -41 27
0 52 -4 55 -9 3 -4 58 -11 123 -15 133 -8 153 -17 137 -63 -9 -26 -14 -28 -84
-35 -177 -16 -195 -21 -198 -48 -2 -19 9 -38 38 -70 32 -34 40 -51 38 -74 -4
-43 -53 -56 -210 -58 l-127 -1 -56 42 c-58 44 -76 81 -57 112 10 16 7 21 -18
34 -17 9 -30 20 -30 24 0 11 -54 28 -93 30 -39 1 -45 6 -58 50 -11 37 -10 42
21 84 32 46 72 70 106 67 11 -1 38 -2 62 -1 35 1 42 4 42 21 0 27 -34 34 -145
27 -50 -3 -96 -2 -101 1 -16 11 -48 92 -40 100 4 4 52 9 107 10 112 4 115 7
74 72 -28 45 -36 47 -161 53 -103 5 -143 20 -163 61 -13 27 -12 31 9 48 12 10
40 21 61 24 23 4 39 12 39 20 0 15 -63 30 -81 19 -6 -5 -37 -11 -68 -14 -45
-5 -56 -10 -59 -26 -6 -32 -34 -88 -56 -112 -43 -46 -56 -63 -56 -73 0 -5 -9
-25 -20 -45 -24 -44 -25 -53 -3 -78 17 -18 17 -19 -2 -33 -10 -8 -26 -14 -36
-14 -22 0 -37 -20 -45 -58 -4 -21 -17 -38 -40 -51 -30 -18 -34 -26 -34 -60 0
-48 -20 -71 -63 -71 -44 0 -61 -13 -53 -38 4 -12 2 -30 -4 -42 -10 -18 -8 -20
24 -20 31 0 66 -20 66 -39 0 -17 -26 -31 -57 -31 -33 0 -73 -31 -73 -58 0 -7
-5 -22 -10 -33 -10 -18 -13 -18 -33 -4 -14 9 -44 15 -84 15 -60 0 -81 -11 -47
-24 8 -3 13 -10 10 -15 -13 -21 72 -29 118 -11 22 8 28 5 46 -19 11 -16 20
-40 20 -53 0 -23 -3 -24 -72 -24 -55 1 -81 -4 -107 -19 -71 -42 -72 -42 -229
-36 -147 6 -155 7 -173 30 -16 20 -30 25 -79 27 -32 1 -64 5 -70 9 -18 11 -11
34 19 65 22 23 37 30 66 30 36 0 37 1 19 14 -12 9 -23 11 -30 5 -19 -16 -82
27 -89 61 -10 45 -29 55 -73 41 -59 -20 -87 -12 -87 23 0 41 26 54 67 36 18
-7 76 -16 128 -18 105 -4 109 -2 124 69 5 24 11 27 68 32 58 5 71 3 108 -22
12 -8 12 -12 -3 -29 -18 -20 -17 -20 65 -17 46 2 89 3 96 4 6 1 12 9 12 20 0
10 7 24 15 31 24 20 17 30 -20 30 -24 0 -39 -6 -47 -20 -20 -31 -51 -25 -68
13 -7 17 -15 35 -17 38 -2 4 14 14 37 23 22 9 40 21 40 26 0 6 20 33 45 59 25
26 45 53 45 58 0 6 7 24 15 39 8 16 15 36 15 45 0 24 35 56 77 69 21 7 49 21
63 30 19 13 36 16 75 11 68 -8 93 -3 100 20 13 38 -11 50 -96 45 -95 -4 -115
5 -104 53 4 18 14 41 24 50 44 46 111 158 111 188 0 7 6 18 13 25 42 45 117
175 117 204 0 5 18 31 40 58 22 26 40 54 40 61 0 6 9 20 20 30 11 10 20 29 20
42 0 13 4 29 10 36 5 7 26 32 45 57 19 25 40 51 46 59 16 18 82 7 123 -21z
m-959 -1219 c10 -31 -9 -38 -81 -32 -35 3 -70 0 -82 -6 -15 -8 -23 -7 -32 4
-23 28 -4 44 57 48 135 8 131 8 138 -14z m1018 -318 c11 -11 10 -1032 -1
-1043 -8 -8 -250 -13 -258 -5 -8 8 -12 195 -14 632 -1 392 -1 410 17 420 24
12 243 9 256 -4z m817 -113 c38 -26 54 -80 27 -91 -7 -3 -74 -1 -149 3 -75 4
-147 6 -159 4 -38 -6 -93 27 -97 57 -4 38 19 44 191 47 146 3 153 3 187 -20z
m41 -128 c10 0 27 -8 37 -17 10 -10 35 -31 57 -48 59 -44 75 -63 75 -87 1 -13
7 -34 15 -48 8 -14 14 -44 15 -68 0 -37 4 -44 28 -53 50 -20 57 -26 60 -48 5
-29 -15 -51 -44 -51 -27 0 -40 -16 -19 -24 18 -7 19 -30 2 -44 -13 -11 -96
-14 -208 -9 -62 2 -93 21 -85 49 6 25 -28 38 -97 38 -101 0 -189 12 -194 27
-9 24 19 42 76 50 56 8 58 10 87 76 20 45 18 48 -62 72 -65 19 -87 41 -59 61
11 7 25 18 30 24 6 6 16 16 24 23 7 6 25 24 39 40 22 23 35 27 82 28 30 0 64
4 75 9 11 5 26 7 33 4 8 -2 22 -4 33 -4z m-1911 -65 c23 -8 68 -15 99 -15 70
0 106 -17 106 -50 0 -22 -6 -26 -41 -30 -23 -4 -53 -14 -67 -23 -22 -14 -53
-17 -197 -17 -107 0 -170 4 -170 10 0 6 -18 10 -40 10 -49 0 -53 -15 -7 -23
19 -3 51 -21 73 -41 36 -34 64 -46 64 -28 0 4 35 8 78 9 42 2 96 5 120 9 l42
5 -6 -43 c-14 -88 -63 -138 -136 -138 -21 0 -54 -9 -75 -19 -33 -16 -52 -18
-141 -14 -111 6 -124 13 -105 56 20 44 10 47 -143 47 -79 0 -144 4 -144 8 0
24 30 32 124 32 78 0 103 3 118 17 43 39 9 63 -91 63 -62 0 -71 2 -71 18 0 27
42 42 115 42 l65 0 0 35 c0 19 -4 35 -10 35 -5 0 -10 4 -10 9 0 12 120 31 190
30 30 0 84 4 120 9 95 13 94 13 140 -3z m2040 -465 c0 -7 34 -10 93 -10 65 1
103 -3 130 -14 31 -14 41 -14 60 -4 25 14 185 12 203 -3 18 -14 5 -47 -19 -52
-12 -3 -56 -4 -97 -3 -68 3 -77 1 -102 -22 -27 -25 -28 -25 -177 -19 -118 4
-156 9 -181 24 -18 10 -41 22 -51 28 -11 5 -19 13 -19 16 0 16 33 31 72 33 26
2 46 8 52 19 12 19 36 23 36 7z m-2155 -35 c22 -21 23 -27 14 -49 -16 -33 -22
-35 -157 -42 -64 -3 -139 -7 -167 -9 -27 -2 -58 1 -67 6 -35 19 -12 90 36 109
11 5 88 9 169 9 144 1 149 0 172 -24z m2363 -133 c12 -7 22 -19 22 -26 0 -22
27 -38 66 -38 48 0 106 -49 102 -87 -2 -21 -9 -27 -35 -29 -22 -2 -34 -10 -39
-24 -6 -20 -11 -21 -113 -15 -58 4 -128 14 -155 22 -32 10 -67 13 -100 9 -58
-7 -80 7 -74 48 2 19 10 23 45 26 53 4 72 30 48 64 -8 13 -15 32 -15 43 0 19
6 20 113 20 70 0 120 -5 135 -13z m-2477 -79 c10 -10 8 -18 -12 -39 -45 -48
-68 -54 -216 -54 -76 0 -148 3 -160 6 -58 16 -23 70 57 88 72 16 315 15 331
-1z m3029 -13 c80 -41 47 -57 -128 -62 -128 -4 -144 -3 -162 14 -20 19 -26 48
-13 61 3 4 64 7 135 7 109 0 135 -3 168 -20z m-3396 -186 c18 -32 28 -35 114
-29 81 7 82 7 82 -17 0 -12 -9 -34 -20 -48 -19 -25 -19 -25 -192 -25 l-173 0
2 28 c3 47 63 94 138 110 29 6 37 3 49 -19z m2947 -34 c147 0 157 -1 182 -22
14 -13 27 -32 29 -43 3 -19 -3 -20 -188 -23 l-191 -2 -28 35 c-22 30 -25 38
-14 51 7 9 21 13 33 10 12 -3 91 -6 177 -6z m647 -22 c7 -7 12 -20 12 -30 0
-16 -7 -18 -70 -12 -45 5 -85 2 -115 -6 -25 -7 -47 -11 -49 -9 -2 2 -7 19 -11
37 l-7 32 114 0 c75 0 118 -4 126 -12z m-2903 -25 c-24 -17 -30 -17 -46 4 -8
9 -9 14 -4 11 6 -3 19 -2 30 2 28 11 42 0 20 -17z m951 -170 c-3 -65 -5 -124
-6 -131 0 -10 -27 -12 -117 -10 l-118 3 -6 120 c-3 66 -3 123 -1 128 2 4 59 7
128 7 l125 0 -5 -117z m1266 31 c24 -13 60 -16 152 -16 95 0 129 -4 168 -19
36 -14 54 -16 68 -9 29 16 50 12 50 -9 0 -26 -17 -36 -35 -21 -11 9 -15 3 -22
-32 -7 -35 -13 -42 -29 -40 -10 2 -77 6 -149 9 -99 4 -140 1 -172 -10 -34 -11
-52 -12 -90 -3 -63 14 -71 21 -66 49 3 14 -2 29 -12 37 -14 12 -14 15 6 36 12
12 27 20 34 18 7 -3 15 2 18 10 8 21 40 20 79 0z m-3152 -32 c29 -11 154 -15
431 -14 173 0 186 -1 197 -19 9 -14 10 -25 2 -40 -11 -19 -20 -19 -248 -17
-143 2 -243 -1 -252 -7 -15 -10 -270 -15 -270 -5 0 3 -29 3 -65 2 -76 -4 -85
5 -66 68 11 38 13 39 64 42 92 5 181 1 207 -10z m3636 -256 c9 -38 1 -61 -21
-58 -68 10 -137 11 -262 6 -112 -5 -143 -9 -143 -20 0 -21 -14 -17 -38 11 -12
14 -26 25 -32 25 -5 0 -10 9 -10 20 0 19 7 20 234 20 146 0 237 4 241 10 11
17 24 11 31 -14z m-3468 -1 c1 -1 -3 -14 -9 -29 -15 -31 -56 -41 -137 -32 -31
4 -96 7 -144 6 -74 0 -88 2 -88 16 0 35 25 44 120 43 50 -1 94 1 97 5 6 6 153
-3 161 -9z m2492 -31 c22 -22 -16 -33 -123 -35 -109 -1 -137 6 -137 38 0 13
20 14 125 12 71 -3 129 -9 135 -15z m-3050 -218 c0 -16 -34 -31 -49 -21 -6 3
-8 12 -4 20 7 19 53 20 53 1z m1749 -1 c42 -1 87 -7 101 -13 14 -6 23 -11 20
-12 -29 -5 -233 -3 -237 3 -7 12 18 38 29 31 6 -4 45 -8 87 -9z m5456 -3345
c19 -16 19 -59 0 -80 -14 -16 -14 -21 6 -54 12 -20 19 -39 16 -43 -12 -12 -36
7 -53 42 -22 48 -48 44 -52 -8 -2 -24 -8 -37 -15 -34 -16 5 -22 178 -7 187 16
10 89 3 105 -10z m303 -84 l-3 -88 -47 -4 c-41 -3 -50 0 -68 23 -42 54 -9 120
56 110 32 -5 34 -4 34 22 0 15 3 31 7 35 16 16 24 -17 21 -98z m139 82 c22
-18 0 -30 -32 -18 -20 8 -31 7 -41 -1 -22 -18 -17 -25 36 -47 44 -19 50 -24
50 -51 0 -20 -8 -35 -22 -45 -28 -20 -51 -20 -90 0 -41 21 -23 43 21 24 25
-10 34 -10 46 0 24 20 18 28 -32 52 -56 27 -66 55 -31 88 24 23 67 22 95 -2z
m261 -1 c2 -10 -3 -17 -12 -17 -10 0 -16 9 -16 21 0 24 23 21 28 -4z m280 -15
c3 -28 6 -31 27 -26 13 3 33 1 44 -6 18 -9 21 -20 21 -71 0 -72 -23 -79 -28
-8 -4 52 -12 63 -40 54 -17 -5 -22 -16 -24 -52 -2 -26 -9 -48 -15 -51 -10 -3
-13 21 -13 98 0 77 3 101 13 98 6 -3 13 -19 15 -36z m-212 -7 c4 -8 12 -15 20
-15 22 0 16 -27 -6 -33 -17 -4 -20 -11 -14 -34 3 -15 13 -33 20 -39 17 -13 18
-34 3 -34 -31 0 -49 22 -49 61 0 26 -5 42 -15 45 -20 8 -19 19 2 44 21 24 32
25 39 5z m-634 -32 c10 -9 18 -27 18 -40 0 -21 -4 -23 -51 -23 -46 0 -50 -2
-38 -16 9 -11 22 -14 46 -9 34 6 42 -2 21 -23 -19 -19 -57 -14 -83 13 -30 30
-31 54 -4 89 24 30 63 34 91 9z m359 -10 c21 -59 21 -59 30 -30 8 30 27 57 39
57 4 0 12 -18 19 -40 13 -45 26 -45 36 0 7 31 22 47 33 36 3 -4 0 -23 -7 -44
-37 -109 -43 -113 -70 -49 -13 28 -21 37 -25 27 -3 -8 -10 -28 -16 -43 -5 -16
-15 -27 -21 -25 -13 4 -59 125 -51 133 12 11 23 4 33 -22z m207 -40 c-2 -42
-8 -68 -15 -71 -10 -3 -13 15 -13 67 0 57 3 71 15 71 13 0 15 -12 13 -67z
m216 51 c24 -23 20 -26 -23 -19 -33 5 -41 3 -50 -14 -21 -39 17 -73 58 -52 27
15 39 -6 15 -24 -36 -27 -78 -16 -100 26 -13 26 -13 32 1 58 22 43 70 55 99
25z m288 -1 c10 -9 18 -27 18 -40 0 -21 -4 -23 -46 -23 -32 0 -44 -4 -41 -12
2 -7 19 -13 38 -13 41 0 49 -17 13 -29 -33 -11 -71 6 -86 38 -29 64 52 126
104 79z m126 0 c2 -9 -7 -13 -27 -13 -40 0 -39 -13 2 -31 63 -27 35 -89 -34
-74 -44 10 -38 35 7 28 29 -5 36 -3 32 8 -3 8 -13 16 -24 18 -65 12 -56 86 10
79 16 -2 31 -9 34 -15z m-1720 -93 c11 25 11 25 11 -7 1 -26 -3 -33 -18 -33
-20 0 -31 25 -23 50 4 11 8 8 13 -10 l6 -25 11 25z"/>
<path d="M7160 6861 c-17 -5 -21 -9 -12 -15 7 -4 19 -2 27 4 20 17 43 -2 47
-38 2 -21 9 -28 31 -30 35 -4 34 9 -3 36 -16 13 -30 29 -30 37 0 16 -19 18
-60 6z"/>
<path d="M7627 6403 c-10 -9 -8 -41 2 -48 5 -3 17 2 26 11 12 12 13 19 4 30
-13 15 -22 18 -32 7z"/>
<path d="M6106 5929 c-32 -5 -62 -11 -65 -14 -9 -9 22 -25 37 -20 8 3 41 5 75
5 56 0 99 12 87 23 -12 11 -80 14 -134 6z"/>
<path d="M7861 5483 c-9 -6 -14 -14 -11 -16 3 -3 63 -7 135 -8 116 -3 130 -2
133 14 4 19 3 20 -142 21 -61 1 -105 -3 -115 -11z"/>
<path d="M7980 5270 c0 -5 10 -10 23 -10 18 0 19 2 7 10 -19 13 -30 13 -30 0z"/>
<path d="M12000 575 c0 -24 3 -26 33 -23 24 2 32 8 32 23 0 15 -8 21 -32 23
-30 3 -33 1 -33 -23z"/>
<path d="M12290 535 c-10 -12 -10 -21 -2 -40 19 -42 72 -26 72 21 0 34 -47 46
-70 19z"/>
<path d="M12150 540 c0 -5 14 -10 31 -10 17 0 28 4 24 10 -3 6 -17 10 -31 10
-13 0 -24 -4 -24 -10z"/>
<path d="M13220 540 c0 -5 14 -10 31 -10 17 0 28 4 24 10 -3 6 -17 10 -31 10
-13 0 -24 -4 -24 -10z"/>
</g>
</svg>
